<svg width="445" height="537" viewBox="0 0 445 537" fill="none" xmlns="http://www.w3.org/2000/svg">
<path fill-rule="evenodd" clip-rule="evenodd" d="M400.39 425.893L159.277 497.204C151.911 499.386 144.852 493.014 146.399 485.585L232.535 73.0679C234.146 65.3579 244.809 64.133 248.174 71.2768L407.66 409.948C410.668 416.337 407.236 423.871 400.39 425.893ZM441.739 409.071L257.075 16.9331V16.9247C254.781 12.0959 251.222 7.97805 246.777 5.00775C242.332 2.03744 237.166 0.325425 231.827 0.0532355C220.589 -0.601153 210.521 4.81853 204.841 14.0429L4.5648 338.427C1.52221 343.327 -0.060631 348.993 0.0017767 354.76C0.0641844 360.528 1.76926 366.158 4.91716 370.991L102.815 522.642C108.65 531.694 118.76 536.933 129.268 536.933C132.246 536.933 135.241 536.514 138.186 535.641L422.359 451.594C426.636 450.341 430.595 448.184 433.967 445.269C437.34 442.354 440.047 438.749 441.906 434.698C443.742 430.67 444.677 426.29 444.648 421.864C444.619 417.438 443.626 413.071 441.739 409.067V409.071Z" fill="#0C344B"/>
</svg>
