<svg width="273" height="321" viewBox="0 0 273 321" fill="none" xmlns="http://www.w3.org/2000/svg">
<path d="M162.38 153.305H97.1763V184.587H160.813C164.576 184.587 168.022 183.024 170.842 180.521C173.35 178.017 174.918 174.265 174.918 169.572C175.009 165.544 173.799 161.595 171.469 158.309C168.96 155.184 166.141 153.305 162.38 153.305V153.305ZM164.576 115.458C167.395 113.579 168.649 109.513 168.649 104.195C168.649 99.5023 167.395 96.0637 165.2 93.8739C163.005 91.9949 160.182 90.7461 157.049 90.7461H97.1763V118.897H155.795C158.931 118.897 162.067 117.334 164.576 115.458V115.458Z" fill="#09B3AF"/>
<path d="M260.184 0.0302734H14.1059C6.27183 0.0302734 0 6.28592 0 13.7933V259.66C0 267.167 6.27183 271.86 13.7923 271.86H50.1547V320.97L95.2947 272.174H260.184C267.707 272.174 272.408 267.481 272.408 259.66V14.1069C272.408 6.59956 267.704 0.343911 259.87 0.343911L260.184 0.0302734ZM218.804 199.287C215.668 204.918 210.967 209.609 205.325 213.053C199.367 216.805 192.785 220.247 185.261 221.809C177.738 223.688 169.59 225.251 161.126 225.251H50.1547V50.0783H176.173C182.442 50.0783 187.77 51.3329 192.785 54.1471C197.489 56.6476 201.879 60.0891 205.325 64.155C212.346 72.6951 216.12 83.443 215.982 94.498C215.982 102.63 213.787 110.451 209.713 117.958C205.483 125.513 198.87 131.453 190.906 134.849C200.935 137.666 208.772 142.67 214.73 149.864C220.372 157.371 223.192 167.068 223.192 179.269C223.192 187.09 221.624 193.659 218.491 199.287H218.804Z" fill="#09B3AF"/>
</svg>
