<?xml version="1.0" encoding="UTF-8"?> <svg xmlns="http://www.w3.org/2000/svg" xmlns:xlink="http://www.w3.org/1999/xlink" width="437.982" height="93.288" viewBox="0 0 437.982 93.288"><defs><clipPath id="clip-path"><path id="Schnittmenge_1" data-name="Schnittmenge 1" d="M140.842,68.193a13.951,13.951,0,0,1-3-.909V57.555a16.528,16.528,0,0,0,4.91.91,4.188,4.188,0,0,0,3.273-1.364,15.754,15.754,0,0,0,2-5.092L133.84,14.639h11.729l8.638,27.55,7.547-27.55h10.638L158.117,58.01a14.805,14.805,0,0,1-17.275,10.183Zm-94.107-16a9.1,9.1,0,0,1-3.364-1.818,8.269,8.269,0,0,1-2.182-3,11.687,11.687,0,0,1-.909-4.637V23.185H35.551V14.639H40.37V2.727H51.645V14.548h7.637v8.637H51.645v15.64a3.672,3.672,0,0,0,.909,2.727,4.057,4.057,0,0,0,2.364.727,6.445,6.445,0,0,0,2.637-.455,11.65,11.65,0,0,0,2.364-.909L62.1,50.008h.092a45.9,45.9,0,0,1-5.365,1.818,22.959,22.959,0,0,1-6.092.91A14.192,14.192,0,0,1,46.735,52.191Zm36.734.454A21.813,21.813,0,0,1,75.012,51.1,17.822,17.822,0,0,1,64.829,40.643a20.9,20.9,0,0,1,0-14.73A17.822,17.822,0,0,1,75.012,15.457a22.265,22.265,0,0,1,8.457-1.546,19.093,19.093,0,0,1,14.73,5.91,17.943,17.943,0,0,1,3.909,6.092,20.362,20.362,0,0,1,0,14.821A17.91,17.91,0,0,1,92.015,51.1a21.816,21.816,0,0,1-8.076,1.55Q83.7,52.65,83.468,52.645Zm-5.82-26.368a10.3,10.3,0,0,0-1.818,3.092,11.815,11.815,0,0,0-.545,4,10.145,10.145,0,0,0,2.273,7,7.769,7.769,0,0,0,6,2.728,7.456,7.456,0,0,0,5.91-2.728A10.129,10.129,0,0,0,91.2,37.279a11.023,11.023,0,0,0,.637-3.91,10.27,10.27,0,0,0-2.364-7.092,7.457,7.457,0,0,0-5.91-2.727H83.54A7.727,7.727,0,0,0,77.649,26.277ZM264,52.646a21.812,21.812,0,0,1-8.41-1.546,17.914,17.914,0,0,1-10.275-10.456,20.913,20.913,0,0,1,3.819-20.913,19.589,19.589,0,0,1,6.365-4.273,22.261,22.261,0,0,1,8.456-1.546,19.093,19.093,0,0,1,14.73,5.91,16.678,16.678,0,0,1,3.91,6.092,20.456,20.456,0,0,1-3.819,20.912,17.452,17.452,0,0,1-6.365,4.274,21.81,21.81,0,0,1-8.068,1.548Zm-5.864-26.369a10.269,10.269,0,0,0-1.818,3.092,11.517,11.517,0,0,0-.546,4,10.145,10.145,0,0,0,2.273,7,7.767,7.767,0,0,0,6,2.728,7.544,7.544,0,0,0,5.91-2.728,10.133,10.133,0,0,0,1.728-3.091,11.04,11.04,0,0,0,.636-3.91,10.27,10.27,0,0,0-2.364-7.092,7.455,7.455,0,0,0-5.91-2.727h-.02A7.725,7.725,0,0,0,258.134,26.277ZM199.306,52.645a14.174,14.174,0,0,1-7.456-1.818,13.182,13.182,0,0,1-5.092-5v6.183h-9.911V0H188.3V20.73a13.55,13.55,0,0,1,12.184-6.819,13.386,13.386,0,0,1,6.547,1.546,15.9,15.9,0,0,1,5.182,4.092,23.822,23.822,0,0,1,3.273,21.458,20.038,20.038,0,0,1-3.728,6.183A16.732,16.732,0,0,1,199.4,52.645Zm-2.727-29.1a8.013,8.013,0,0,0-4.91,1.818,13.018,13.018,0,0,0-3.455,4.728v7.819a8.912,8.912,0,0,0,8,5.092l-.091.091a8.638,8.638,0,0,0,8.183-5.819,11.277,11.277,0,0,0-1.727-10.821,7.365,7.365,0,0,0-5.865-2.91ZM224.946,50.1a9.888,9.888,0,0,1-2.727-7.456V0h11.456V38.643c0,2.91,1.182,4.274,3.637,4.274a8,8,0,0,0,3.727-.91l1.546,8.457a26,26,0,0,1-10.092,2.182C229.22,52.645,226.674,51.736,224.946,50.1ZM7.819,51.191A21.374,21.374,0,0,1,0,46.644l4.092-6.91a37.109,37.109,0,0,0,6.637,3.637,15.376,15.376,0,0,0,6.182,1.273,6.268,6.268,0,0,0,3.455-.818,2.421,2.421,0,0,0,1.182-2.273A2.588,2.588,0,0,0,20,39.188a23.611,23.611,0,0,0-5.365-1.818L8.274,35.279a19.622,19.622,0,0,1-4.182-2.273,6.685,6.685,0,0,1-2.364-2.727A8.9,8.9,0,0,1,1,26.641a11.819,11.819,0,0,1,4.273-9.275A14.706,14.706,0,0,1,10,14.821a17.884,17.884,0,0,1,5.91-.909A27.752,27.752,0,0,1,23.822,15a20.511,20.511,0,0,1,7.092,4.183L26.459,26a30.3,30.3,0,0,0-5.637-3.182,12.162,12.162,0,0,0-4.91-1,5.572,5.572,0,0,0-3.092.727,2.383,2.383,0,0,0-1.272,2.364,2.539,2.539,0,0,0,1.363,2.363,23.743,23.743,0,0,0,5.183,1.728A64.44,64.44,0,0,1,24.822,31.1a22.328,22.328,0,0,1,4.455,2.364,8.094,8.094,0,0,1,3.273,7.092,10.494,10.494,0,0,1-4.182,8.819C25.64,51.554,22,52.645,17.185,52.645A30.068,30.068,0,0,1,7.819,51.191Zm306.96.818L305.05,36.915l-4,4.182V52.009H289.685V0H301.05V30.1l12.639-15.457h12.093L312.324,30.733l14.548,21.276Zm-205.671,0V14.639h10.456v7.456a14.629,14.629,0,0,1,5-5.91,11.314,11.314,0,0,1,6.365-2.273h1.182l.727.091V24.368a20.245,20.245,0,0,0-7.547,1.364,9.087,9.087,0,0,0-4.819,3.818V52.009Z" fill="#fff"></path></clipPath><clipPath id="clip-path-2"><path id="Schnittmenge_2" data-name="Schnittmenge 2" d="M0,27.277V18.185H18.912A3.291,3.291,0,0,1,21.55,19.64a5.462,5.462,0,0,1,1,3.273A4.4,4.4,0,0,1,21.367,26.1a4.377,4.377,0,0,1-2.909,1.182ZM0,8.183V0H17.366A3.635,3.635,0,0,1,19.73.909a4.105,4.105,0,0,1,1,3c0,1.546-.364,2.727-1.182,3.273a4.449,4.449,0,0,1-2.546,1Z" fill="none"></path></clipPath><clipPath id="clip-path-3"><path id="Schnittmenge_3" data-name="Schnittmenge 3" d="M14.548,79.013H4c-2.182,0-4-1.363-4-3.546V4A4.056,4.056,0,0,1,4.092,0H75.467l-.091.091c2.273,0,3.637,1.818,3.637,4V75.467A3.321,3.321,0,0,1,75.467,79.1H27.641L14.548,93.288Zm0-13.547H46.735a28.93,28.93,0,0,0,7-1,17.73,17.73,0,0,0,5.82-2.546,10.991,10.991,0,0,0,3.909-4h-.091A11.721,11.721,0,0,0,64.738,52.1a13.82,13.82,0,0,0-2.455-8.547,13.352,13.352,0,0,0-6.911-4.364,11.369,11.369,0,0,0,5.456-4.91,14.182,14.182,0,0,0,1.818-6.82,13.643,13.643,0,0,0-3.091-8.819,12.531,12.531,0,0,0-3.637-2.91A9.472,9.472,0,0,0,51.1,14.548H14.548Z" fill="none"></path></clipPath></defs><g id="Gruppe_308" data-name="Gruppe 308" transform="translate(-259 -449)"><g id="Gruppe_296" data-name="Gruppe 296" transform="translate(370.11 461.457)"><g id="Gruppe_295" data-name="Gruppe 295" transform="translate(0 0)" clip-path="url(#clip-path)"><rect id="Rechteck_275" data-name="Rechteck 275" width="335.965" height="77.615" transform="translate(-4.547 -4.546)" fill="#fff"></rect></g></g><g id="Gruppe_298" data-name="Gruppe 298" transform="translate(287.186 475.368)"><g id="Gruppe_297" data-name="Gruppe 297" transform="translate(0)" clip-path="url(#clip-path-2)"><rect id="Rechteck_277" data-name="Rechteck 277" width="31.643" height="36.37" transform="translate(-4.546 -4.546)" fill="#00b2ad"></rect></g></g><g id="Gruppe_300" data-name="Gruppe 300" transform="translate(259 449)"><g id="Gruppe_299" data-name="Gruppe 299" transform="translate(0 0)" clip-path="url(#clip-path-3)"><rect id="Rechteck_279" data-name="Rechteck 279" width="88.106" height="102.381" transform="translate(-4.546 -4.546)" fill="#00b2ad"></rect></g></g></g></svg> 