<svg width="109" height="113" viewBox="0 0 109 113" fill="none" xmlns="http://www.w3.org/2000/svg">
<path d="M63.7077 110.284C60.8482 113.885 55.0503 111.912 54.9814 107.314L53.9739 40.0625H99.1936C107.384 40.0625 111.952 49.5226 106.859 55.9372L63.7077 110.284Z" fill="url(#paint0_linear_46_187)"/>
<path d="M63.7077 110.284C60.8482 113.885 55.0503 111.912 54.9814 107.314L53.9739 40.0625H99.1936C107.384 40.0625 111.952 49.5226 106.859 55.9372L63.7077 110.284Z" fill="url(#paint1_linear_46_187)" fill-opacity="0.2"/>
<path d="M45.317 2.07079C48.1765 -1.53061 53.9745 0.442694 54.0434 5.04076L54.4849 72.292H9.83113C1.64038 72.292 -2.92775 62.8319 2.1655 56.4173L45.317 2.07079Z" fill="#3ECF8E"/>
<defs>
<linearGradient id="paint0_linear_46_187" x1="53.9739" y1="54.9738" x2="94.1636" y2="71.8293" gradientUnits="userSpaceOnUse">
<stop stop-color="#249361"/>
<stop offset="1" stop-color="#3ECF8E"/>
</linearGradient>
<linearGradient id="paint1_linear_46_187" x1="36.1559" y1="30.5778" x2="54.4845" y2="65.0804" gradientUnits="userSpaceOnUse">
<stop/>
<stop offset="1" stop-opacity="0"/>
</linearGradient>
</defs>
</svg>
