<?xml version="1.0" encoding="UTF-8" standalone="no"?>
<!-- Created with Inkscape (http://www.inkscape.org/) -->

<svg
   width="102mm"
   height="11.446mm"
   viewBox="0 0 102 11.446"
   version="1.1"
   id="svg12964"
   inkscape:version="1.1 (c68e22c387, 2021-05-23)"
   sodipodi:docname="ct.svg"
   xmlns:inkscape="http://www.inkscape.org/namespaces/inkscape"
   xmlns:sodipodi="http://sodipodi.sourceforge.net/DTD/sodipodi-0.dtd"
   xmlns="http://www.w3.org/2000/svg"
   xmlns:svg="http://www.w3.org/2000/svg">
  <sodipodi:namedview
     id="namedview12966"
     pagecolor="#ffffff"
     bordercolor="#666666"
     borderopacity="1.0"
     inkscape:pageshadow="2"
     inkscape:pageopacity="0.0"
     inkscape:pagecheckerboard="0"
     inkscape:document-units="mm"
     showgrid="false"
     inkscape:zoom="1.3647868"
     inkscape:cx="152.40476"
     inkscape:cy="132.62145"
     inkscape:window-width="1920"
     inkscape:window-height="986"
     inkscape:window-x="-11"
     inkscape:window-y="-11"
     inkscape:window-maximized="1"
     inkscape:current-layer="layer1" />
  <defs
     id="defs12961">
    <rect
       x="35.17033"
       y="161.19734"
       width="466.99255"
       height="183.66379"
       id="rect7065" />
  </defs>
  <g
     inkscape:label="Layer 1"
     inkscape:groupmode="layer"
     id="layer1">
    <path
       id="rect13426"
       style="fill:#000000;stroke-width:3.60297"
       d="m -4.0000001,-6.0000001 v 53.5859381 h 395.5117201 v -53.5859381 z m 104.2656201,9.779297 c 1.47784,0 2.64454,1.166524 2.64454,2.6054687 c 0,1.477838 -1.1667,2.6445313 -2.64454,2.6445313 c -1.438874,0 -2.605464,-1.1666933 -2.605464,-2.6445313 c 0,-1.4389447 1.16659,-2.6054687 2.605464,-2.6054687 z m 245.51563,0 c 1.47781,0 2.64453,1.166524 2.64453,2.6054687 c 0,1.477838 -1.16672,2.6445313 -2.64453,2.6445313 c -1.43897,0 -2.60547,-1.1666933 -2.60547,-2.6445313 c 0,-1.4389447 1.1665,-2.6054687 2.60547,-2.6054687 z m -127.67773,0.6230469 h 4.90039 v 9.9160152 c 1.08893,-1.594509 2.87796,-2.876953 5.75586,-2.876953 c 4.97797,0 7.23437,4.043801 7.23437,8.205078 v 11.978516 h -4.93945 v -10.966797 c 0,-2.527876 -1.0495,-4.433594 -3.84961,-4.433594 c -2.91678,0 -4.20117,2.17795 -4.20117,4.433594 v 10.966797 h -4.90039 z m 68.2539,0 h 4.93946 v 27.2226562 h -4.93946 z m -201.76367,3.3828124 h 4.939453 v 4.1230468 h 4.199219 v 4.509766 l -4.199219,0.002 v 7.193359 c 0,2.255644 0.31087,3.578125 3.033203,3.578125 c 0.350015,0 0.815994,-0.03925 1.166016,-0.07813 v 4.511719 c -0.505576,0.155546 -1.049395,0.271484 -2.060547,0.271484 c -5.055753,0 -7.078125,-3.383316 -7.078125,-7.466796 v -8.011719 h -2.800781 v -4.509766 h 2.800781 z m 77.31445,0 h 4.93946 v 4.1230468 h 4.19922 v 4.509766 l -4.19922,0.002 v 7.193359 c 0,2.255644 0.31087,3.578125 3.0332,3.578125 c 0.35001,0 0.81599,-0.03925 1.16602,-0.07813 v 4.511719 c -0.50558,0.155546 -1.0494,0.271484 -2.06055,0.271484 c -5.05575,0 -7.07813,-3.383312 -7.07813,-7.466796 v -8.011719 h -2.80078 v -4.509766 h 2.80078 z m 210.66797,0 h 4.93945 v 4.1230468 h 4.20118 v 4.509766 l -4.20118,0.002 v 7.193359 c 10e-6,2.255644 0.31089,3.578125 3.03321,3.578125 c 0.35002,0 0.81798,-0.03925 1.16797,-0.07813 v 4.511719 c -0.50555,0.155546 -1.0514,0.271484 -2.0625,0.271484 c -5.05578,0 -7.07813,-3.383301 -7.07813,-7.466796 v -8.011719 h -2.79883 v -4.509766 h 2.79883 z m -358.373045,3.6562498 c 3.811263,0 7.037387,1.905313 8.865234,4.783203 l -4.316406,2.488282 c -0.894477,-1.516727 -2.448744,-2.527344 -4.548828,-2.527344 c -3.305685,0 -5.3671875,2.527267 -5.3671875,5.599609 c 0,3.072343 2.0615025,5.601563 5.3671875,5.601563 c 2.100084,0 3.654351,-1.01257 4.548828,-2.529297 l 4.316406,2.451172 c -1.827847,2.916782 -5.053971,4.822265 -8.865234,4.822265 c -5.9113413,0 -10.4238281,-4.58992 -10.4238281,-10.345703 c 0,-5.794675 4.5124868,-10.34375 10.4238281,-10.34375 z m 23.294922,0 v 5.367188 c -5.833565,-0.700028 -6.572266,3.031796 -6.572266,6.6875 v 8.128906 h -4.939453 v -19.716797 h 4.939453 v 3.226563 c 1.477838,-2.450098 4.199947,-3.69336 6.572266,-3.69336 z m 12.015625,0 c 5.950235,0 10.695259,4.471916 9.800781,12.25 h -14.623047 c 0.700029,2.644551 2.879233,4.044922 5.601563,4.044922 c 2.255648,0 3.811176,-1.206392 4.394531,-1.945312 l 3.966797,2.333984 c -1.594511,2.216755 -4.627843,4.005859 -8.361328,4.005859 c -6.533594,0 -10.851563,-4.356577 -10.851563,-10.345703 c 0,-6.183578 4.627603,-10.34375 10.072266,-10.34375 z m 21.623047,0 c 6.261358,0 8.324219,3.577462 8.324219,8.283203 v 11.900391 h -4.939454 v -2.099609 c -0.933373,1.516727 -3.111308,2.605468 -5.755859,2.605468 c -2.95567,0 -7,-1.594771 -7,-5.794921 c 0,-6.494704 8.011544,-6.494141 10.617187,-6.494141 h 2.138672 c -0.03889,-2.839001 -1.050535,-4.083985 -4.083984,-4.083985 c -1.788964,0 -3.384127,0.933876 -4.123047,1.439454 l -3.382812,-2.566407 c 2.177865,-1.983411 4.89939,-3.189453 8.205078,-3.189453 z m 65.609371,0 c 5.95024,0 10.69514,4.471916 9.80079,12.25 h -14.62305 c 0.70003,2.644551 2.87728,4.044922 5.59961,4.044922 c 2.25565,0 3.81117,-1.206392 4.39453,-1.945312 l 3.9668,2.333984 c -1.59451,2.216755 -4.62785,4.005859 -8.36133,4.005859 c -6.5336,0 -10.84961,-4.356577 -10.84961,-10.345703 c 0,-6.183578 4.6276,-10.34375 10.07226,-10.34375 z m 46.90039,0 c 5.95024,0 10.69527,4.471916 9.80079,12.25 h -14.62305 c 0.70003,2.644551 2.87923,4.044922 5.60156,4.044922 c 2.25565,0 3.81117,-1.206392 4.39453,-1.945312 l 3.9668,2.333984 c -1.5945,2.216755 -4.62785,4.005859 -8.36133,4.005859 c -6.53359,0 -10.85156,-4.356577 -10.85156,-10.345703 c 0,-6.183578 4.6276,-10.34375 10.07226,-10.34375 z m 22.67383,0 c 3.81126,0 7.03934,1.905313 8.86719,4.783203 l -4.31641,2.488282 c -0.89448,-1.516727 -2.45069,-2.527344 -4.55078,-2.527344 c -3.30569,0 -5.36718,2.527267 -5.36719,5.599609 c 10e-6,3.072343 2.0615,5.601563 5.36719,5.601563 c 2.10009,0 3.6563,-1.01257 4.55078,-2.529297 l 4.31641,2.451172 c -1.82785,2.916782 -5.05593,4.822265 -8.86719,4.822265 c -5.91134,0 -10.42187,-4.58992 -10.42187,-10.345703 c 0,-5.794675 4.51053,-10.34375 10.42187,-10.34375 z m 44.9961,0 c 4.97797,0 7.23437,4.043801 7.23437,8.205078 v 11.978516 h -4.93945 v -10.966797 c 0,-2.527876 -1.0495,-4.433594 -3.84961,-4.433594 c -2.91678,0 -4.20117,2.17795 -4.20117,4.433594 v 10.966797 h -4.90039 v -19.716797 h 4.90039 v 2.410156 c 1.08893,-1.594509 2.87797,-2.876953 5.75586,-2.876953 z m 21.11718,0 c 5.95024,0 10.42383,4.549075 10.42383,10.34375 c 0,5.755783 -4.47359,10.345703 -10.42383,10.345703 c -5.91136,0 -10.38281,-4.58992 -10.38281,-10.345703 c 0,-5.794675 4.47145,-10.34375 10.38281,-10.34375 z m 32.7461,0 c 5.95024,0 10.42187,4.549075 10.42187,10.34375 c 0,5.755783 -4.47163,10.345703 -10.42187,10.345703 c -5.91132,0 -10.38281,-4.58992 -10.38281,-10.345703 c 0,-5.794675 4.47149,-10.34375 10.38281,-10.34375 z m 22.32422,0 c 3.07237,0 5.01507,1.322027 6.2207,3.033203 v -2.566406 h 4.93945 v 17.578125 c 0,5.522441 -3.69503,9.994141 -10.69531,9.994141 c -4.04458,0 -7.69863,-1.672262 -9.33203,-3.966797 l 4.00586,-2.371094 c 0.7389,0.972264 2.52731,1.94336 5.17187,1.94336 c 3.81128,0 5.91016,-2.099066 5.91016,-5.949219 v -1.439453 c -1.20563,1.711176 -3.14833,3.033203 -6.2207,3.033203 c -5.95024,0 -9.56836,-4.549887 -9.56836,-9.644531 c 0,-5.094649 3.61812,-9.644532 9.56836,-9.644532 z m 32.66601,0 c 3.38347,0 6.72821,1.671394 7.54492,5.09375 l -4.47265,1.089844 c -0.23335,-1.011149 -1.20553,-2.023437 -3.07227,-2.023438 c -1.43893,1e-6 -2.91601,0.545604 -2.91601,2.023438 c 0,1.75007 2.64556,1.866782 4.20117,2.216797 c 4.82244,1.050042 6.96094,2.372222 6.96094,5.716797 c 0,3.889046 -2.83886,6.572265 -8.36133,6.572265 c -3.77236,0 -7.58406,-1.516576 -8.47852,-4.822265 l 4.74414,-1.478516 c 0.15559,0.816699 0.9346,2.138672 3.8125,2.138672 c 2.06121,0 3.22657,-0.73827 3.22657,-2.060547 c -10e-6,-1.866741 -2.83846,-1.789347 -5.17188,-2.294922 c -3.81124,-0.77781 -5.75586,-2.604813 -5.75586,-5.988281 c 0,-3.733482 3.11034,-6.183594 7.73828,-6.183594 z m -262.353514,0.466797 h 4.939454 v 19.716797 h -4.939454 z m 7.855474,0 h 5.32812 l 4.66797,14 l 4.70508,-14 h 5.32812 l -7.3125,19.716797 h -5.40429 z m 237.66015,0 h 4.9375 v 19.716797 h -4.9375 z m -293.740233,3.927735 c -2.411206,0 -4.317036,1.517042 -4.900391,4.044921 h 9.800782 c -0.505573,-2.566768 -2.255841,-4.044922 -4.900391,-4.044921 z m 87.232423,0 c -2.41121,0 -4.31704,1.517042 -4.90039,4.044921 h 9.79883 c -0.50558,-2.566768 -2.25389,-4.044922 -4.89844,-4.044921 z m 46.90039,0 c -2.41121,0 -4.31703,1.517042 -4.90039,4.044921 h 9.80078 c -0.50558,-2.566768 -2.25584,-4.044922 -4.90039,-4.044921 z m 144.51758,0 c -3.18904,-1e-6 -5.25,2.294328 -5.25,5.25 c 0,2.955668 2.06096,5.249999 5.25,5.25 c 3.30567,0 5.25,-2.37211 5.25,-5.25 c 0,-2.877894 -1.94433,-5.250001 -5.25,-5.25 z m -55.8086,0.349609 c -3.26679,0 -5.32812,2.527267 -5.32812,5.599609 c 0,3.072343 2.06133,5.601563 5.32812,5.601563 c 3.30568,0 5.36719,-2.52922 5.36719,-5.601563 c 0,-3.072342 -2.06151,-5.599609 -5.36719,-5.599609 z m 32.7461,0 c -3.2668,0 -5.32813,2.527267 -5.32813,5.599609 c 0,3.072343 2.06133,5.601563 5.32813,5.601563 c 3.30571,0 5.36719,-2.52922 5.36719,-5.601563 c 0,-3.072342 -2.06148,-5.599609 -5.36719,-5.599609 z m -231.634768,6.767578 c -3.339219,0.0065 -6.724609,0.145073 -6.72461,2.916016 c 10e-7,1.477837 0.973731,2.683593 3.423829,2.683593 c 2.52788,0 3.849542,-1.43916 4.277343,-2.255859 v -3.34375 h -0.310546 c -0.22119,0 -0.443402,-4.31e-4 -0.666016,0 z"
       transform="scale(0.26458333)"
       sodipodi:nodetypes="cccccsssssssssscccssccsssccccccccccccccssccsscccccccccccssccsscccccccccccssccsscccccsccsssccsssccsccccccsccsccssssscccssscsccssccsccssssccsccssssccsssccsssssccssscccccsssssssssssscccssccsscssssccsscssccsscssccccccccccccccccccsccssccssccsssssssssssssssssssccss" />
  </g>
</svg>
