<?xml version="1.0" encoding="UTF-8" standalone="no"?>
<!-- Created with Inkscape (http://www.inkscape.org/) -->

<svg
   width="102mm"
   height="11.808mm"
   viewBox="0 0 102 11.808"
   version="1.1"
   id="svg866"
   inkscape:version="1.1 (c68e22c387, 2021-05-23)"
   sodipodi:docname="fe.svg"
   xmlns:inkscape="http://www.inkscape.org/namespaces/inkscape"
   xmlns:sodipodi="http://sodipodi.sourceforge.net/DTD/sodipodi-0.dtd"
   xmlns="http://www.w3.org/2000/svg"
   xmlns:svg="http://www.w3.org/2000/svg">
  <sodipodi:namedview
     id="namedview868"
     pagecolor="#ffffff"
     bordercolor="#666666"
     borderopacity="1.0"
     inkscape:pageshadow="2"
     inkscape:pageopacity="0.0"
     inkscape:pagecheckerboard="0"
     inkscape:document-units="mm"
     showgrid="false"
     inkscape:zoom="1.3647868"
     inkscape:cx="115.03629"
     inkscape:cy="60.082647"
     inkscape:window-width="1920"
     inkscape:window-height="986"
     inkscape:window-x="-11"
     inkscape:window-y="-11"
     inkscape:window-maximized="1"
     inkscape:current-layer="layer1" />
  <defs
     id="defs863">
    <rect
       x="35.17033"
       y="161.19734"
       width="466.99255"
       height="183.66379"
       id="rect7065" />
  </defs>
  <g
     inkscape:label="Layer 1"
     inkscape:groupmode="layer"
     id="layer1">
    <path
       id="rect1333"
       style="fill:#000000;stroke-width:7.16572"
       d="m -6.0000001,-12 v 60.976562 h 397.5117201 v -60.976562 z m 20.1718751,15.7792969 c 1.022894,0 1.472401,0.041315 2.167969,0.1640625 v 4.3359375 c -0.286409,0 -0.5711,-0.039063 -0.898438,-0.039063 c -2.65952,3e-6 -3.560547,1.431987 -3.560547,3.9687496 h 4.458985 v 4.746094 h -4.458985 v 15.998047 h -5.1972652 v -15.998047 h -2.9042969 v -4.746094 h 2.9042969 c 0,-4.2552212 1.8828368,-8.4296871 7.4882812,-8.4296871 z m 157.894535,0.53125 h 5.19531 v 28.6425781 h -5.19531 v -2.414063 c -1.35022,1.67754 -3.39657,2.945313 -6.62891,2.945313 c -6.42376,0 -10.10742,-5.441028 -10.10742,-10.882813 c 0,-5.441775 3.68366,-10.884765 10.10742,-10.884765 c 3.23234,0 5.27869,1.228816 6.62891,2.947265 z m 36.25,0 h 5.19726 v 28.6425781 h -5.19726 v -2.414063 c -1.35022,1.67754 -3.39657,2.945313 -6.62891,2.945313 c -6.42376,0 -10.10547,-5.441028 -10.10547,-10.882813 c 0,-5.441776 3.68171,-10.884765 10.10547,-10.884765 c 3.23234,0 5.27869,1.228815 6.62891,2.947265 z m 77.74023,0 h 5.19531 v 28.6425781 h -5.19531 z m -201.263671,3.5605469 h 5.195312 v 4.3378902 h 4.419922 v 4.746094 h -4.419922 v 7.56836 c 0,2.373096 0.327303,3.763671 3.191407,3.763671 c 0.368227,0 0.860276,-0.03917 1.228515,-0.08008 v 4.746094 c -0.531904,0.16365 -1.106113,0.285156 -2.169922,0.285156 c -5.319035,0 -7.445312,-3.559322 -7.445312,-7.855469 v -8.427734 h -2.947266 v -4.746094 h 2.947266 z m -52.658203,3.8457032 v 5.646484 c -6.137353,-0.736482 -6.916016,3.191033 -6.916016,7.03711 v 8.552734 h -5.195312 v -20.744141 h 5.195312 v 3.394532 c 1.554797,-2.577688 4.420156,-3.886719 6.916016,-3.886719 z m 12.96875,0 c 6.260095,0 10.966796,4.788342 10.966796,10.884765 c 0,6.05552 -4.706701,10.882813 -10.966796,10.882813 c -6.219187,0 -10.923829,-4.827293 -10.923828,-10.882813 c -10e-7,-6.096423 4.704641,-10.884765 10.923828,-10.884765 z m 25.859375,0 c 5.237208,0 7.611328,4.254833 7.611328,8.632812 v 12.603516 h -5.197266 v -11.539063 c 0,-2.659503 -1.104855,-4.664062 -4.050781,-4.664062 c -3.068674,0 -4.417969,2.290967 -4.417969,4.664062 v 11.539063 h -5.15625 v -20.744141 h 5.15625 v 2.535157 c 1.145639,-1.677544 3.026931,-3.027344 6.054688,-3.027344 z m 47.748049,0 c 6.26009,0 11.25161,4.705538 10.31054,12.888672 h -15.38281 c 0.73648,2.782267 3.02652,4.255859 5.89063,4.255859 c 2.37311,0 4.00931,-1.269474 4.62304,-2.046875 l 4.17383,2.455078 c -1.67754,2.332194 -4.86897,4.214844 -8.79687,4.214844 c -6.87384,0 -11.41407,-4.581799 -11.41407,-10.882813 c 0,-6.505582 4.86751,-10.884765 10.59571,-10.884765 z m 25.32812,0 c 5.23721,0 7.60938,4.254833 7.60938,8.632812 v 12.603516 h -5.19532 v -11.539063 c 0,-2.659506 -1.10485,-4.664062 -4.05078,-4.664062 c -3.06867,0 -4.41992,2.290964 -4.41992,4.664062 v 11.539063 h -5.1543 v -20.744141 h 5.1543 v 2.535157 c 1.14564,-1.677544 3.02888,-3.027344 6.05664,-3.027344 z m 83.75391,0 c 6.2601,0 11.25161,4.705538 10.31055,12.888672 h -15.38477 c 0.73648,2.782267 3.02848,4.255859 5.89258,4.255859 c 2.37311,0 4.00931,-1.269474 4.62305,-2.046875 l 4.17382,2.455078 c -1.67754,2.332194 -4.86897,4.214844 -8.79687,4.214844 c -6.87384,0 -11.41602,-4.581799 -11.41602,-10.882813 c 0,-6.505586 4.86947,-10.884765 10.59766,-10.884765 z m 44.14844,0 c 6.2601,0 11.2516,4.705538 10.31054,12.888672 h -15.38476 c 0.73648,2.782267 3.02848,4.255859 5.89258,4.255859 c 2.3731,0 4.0093,-1.269474 4.62304,-2.046875 l 4.17188,2.455078 c -1.67755,2.332194 -4.86702,4.214844 -8.79492,4.214844 c -6.87384,0 -11.41602,-4.581799 -11.41602,-10.882813 c 0,-6.505588 4.86946,-10.884765 10.59766,-10.884765 z m 33.91797,0 c 6.26006,0 10.96484,4.788331 10.96484,10.884765 c 0,6.05552 -4.70478,10.882813 -10.96484,10.882813 c -6.21919,0 -10.92383,-4.827293 -10.92383,-10.882813 c 0,-6.096434 4.70464,-10.884765 10.92383,-10.884765 z m 26.43164,0 c 6.46468,0 10.14648,5.442983 10.14648,10.884765 c 0,5.441785 -3.6818,10.882813 -10.14648,10.882813 c -3.19143,0 -5.27859,-1.267773 -6.5879,-2.945313 v 10.310547 h -5.19531 v -28.640625 h 5.19531 v 2.455078 c 1.30931,-1.718456 3.39647,-2.947265 6.5879,-2.947265 z m 23.19921,0 c 6.2601,0 11.25162,4.705538 10.31055,12.888672 h -15.38476 c 0.73648,2.782267 3.02846,4.255859 5.89257,4.255859 c 2.3731,0 4.00932,-1.269474 4.62305,-2.046875 l 4.17383,2.455078 c -1.67752,2.332194 -4.86897,4.214844 -8.79688,4.214844 c -6.87385,0 -11.41601,-4.581799 -11.41601,-10.882813 c 0,-6.505593 4.86946,-10.884765 10.59765,-10.884765 z m 26.22657,0 v 5.646484 c -6.13734,-0.736482 -6.91407,3.191033 -6.91407,7.03711 v 8.552734 h -5.19726 v -20.744141 h 5.19726 v 3.394532 c 1.55481,-2.577688 4.41822,-3.886719 6.91407,-3.886719 z m -142.46875,0.492187 h 5.60547 l 4.91015,14.728516 l 4.95117,-14.728516 h 5.60547 l -7.6914,20.744141 h -5.6875 z m -120.45508,4.13086 c -2.53677,0 -4.54056,1.596339 -5.1543,4.255859 h 10.31055 c -0.53191,-2.700435 -2.37399,-4.255859 -5.15625,-4.255859 z m 109.08203,0 c -2.53677,0 -4.54252,1.596339 -5.15625,4.255859 h 10.31055 c -0.5319,-2.700435 -2.37203,-4.255859 -5.1543,-4.255859 z m 44.14648,0 c -2.53677,0 -4.54055,1.596339 -5.15429,4.255859 h 10.31054 c -0.5319,-2.700435 -2.37398,-4.255859 -5.15625,-4.255859 z m 83.55079,0 c -2.53679,0 -4.54252,1.596339 -5.15625,4.255859 h 10.31054 c -0.53192,-2.700435 -2.37206,-4.255859 -5.15429,-4.255859 z m -310.468754,0.36914 c -3.436921,0 -5.605469,2.660255 -5.605469,5.892578 c 0,3.232338 2.168548,5.890626 5.605469,5.890626 c 3.47783,0 5.646484,-2.658288 5.646484,-5.890626 c 0,-3.232323 -2.168654,-5.892578 -5.646484,-5.892578 z m 121.152344,0 c -3.55967,0 -5.60547,2.701164 -5.60547,5.892578 c 0,3.191424 2.0458,5.890626 5.60547,5.890626 c 3.55966,0 5.56445,-2.699202 5.56445,-5.890626 c 0,-3.191414 -2.00479,-5.892578 -5.56445,-5.892578 z m 36.25,0 c -3.55967,0 -5.60547,2.701163 -5.60547,5.892578 c 0,3.191424 2.0458,5.890626 5.60547,5.890626 c 3.55966,0 5.56445,-2.699202 5.56445,-5.890626 c 0,-3.191415 -2.00479,-5.892578 -5.56445,-5.892578 z m 103.35352,0 c -3.43692,0 -5.60547,2.660244 -5.60547,5.892578 c 0,3.232338 2.16855,5.890626 5.60547,5.890626 c 3.4778,0 5.64648,-2.658288 5.64648,-5.890626 c 0,-3.232334 -2.16868,-5.892578 -5.64648,-5.892578 z m 25.65429,0 c -3.60058,0 -5.60547,2.701157 -5.60547,5.892578 c 0,3.191424 2.00489,5.890626 5.60547,5.890626 c 3.55967,0 5.60547,-2.699202 5.60547,-5.890626 c 0,-3.191421 -2.0458,-5.892578 -5.60547,-5.892578 z"
       transform="scale(0.26458333)"
       sodipodi:nodetypes="cccccsccsccccccccccscccccssscccccccssscccccccccccccssccsscccccccsccccccsssssssccssscccccssccsccsssssccssscccccssccsccssssccsccsssssssssssccccccssccsccsssccsccccccccccccccsccssccssccssccssssssssssssssssssssssssss" />
  </g>
</svg>
