<?xml version="1.0" encoding="UTF-8" standalone="no"?>
<!-- Created with Inkscape (http://www.inkscape.org/) -->

<svg
   width="80mm"
   height="32mm"
   viewBox="0 0 80 32"
   version="1.1"
   id="svg10923"
   inkscape:version="1.1 (c68e22c387, 2021-05-23)"
   sodipodi:docname="ct.svg"
   xmlns:inkscape="http://www.inkscape.org/namespaces/inkscape"
   xmlns:sodipodi="http://sodipodi.sourceforge.net/DTD/sodipodi-0.dtd"
   xmlns="http://www.w3.org/2000/svg"
   xmlns:svg="http://www.w3.org/2000/svg">
  <sodipodi:namedview
     id="namedview10925"
     pagecolor="#ffffff"
     bordercolor="#666666"
     borderopacity="1.0"
     inkscape:pageshadow="2"
     inkscape:pageopacity="0.0"
     inkscape:pagecheckerboard="0"
     inkscape:document-units="mm"
     showgrid="false"
     inkscape:zoom="1.9300999"
     inkscape:cx="227.44936"
     inkscape:cy="92.223204"
     inkscape:window-width="1920"
     inkscape:window-height="986"
     inkscape:window-x="-11"
     inkscape:window-y="-11"
     inkscape:window-maximized="1"
     inkscape:current-layer="layer1" />
  <defs
     id="defs10920">
    <rect
       x="84.969696"
       y="129.00887"
       width="223.39252"
       height="82.808456"
       id="rect3974" />
  </defs>
  <g
     inkscape:label="Layer 1"
     inkscape:groupmode="layer"
     id="layer1">
    <path
       id="rect10648"
       style="stroke-width:3.77953"
       d="M 0 0 L 0 137.29883 L 302.36133 137.29883 L 302.36133 0 L 0 0 z M 136.80078 32.326172 C 137.66259 32.326172 138.3606 32.566143 138.89258 33.044922 C 139.4352 33.523701 139.70703 34.139121 139.70703 34.894531 C 139.70703 35.660576 139.4352 36.289876 138.89258 36.779297 C 138.3606 37.268718 137.66259 37.513672 136.80078 37.513672 C 135.94962 37.513672 135.25356 37.263735 134.71094 36.763672 C 134.16832 36.252973 133.89648 35.628657 133.89648 34.894531 C 133.89648 34.139121 134.16832 33.523701 134.71094 33.044922 C 135.25356 32.566143 135.94962 32.326172 136.80078 32.326172 z M 127.73633 35.134766 L 127.73633 40.097656 L 131.4082 40.097656 L 131.4082 43.816406 L 127.73633 43.816406 L 127.73633 50.423828 C 127.73633 52.12616 128.41245 52.976563 129.76367 52.976562 C 130.29566 52.976562 130.84431 52.822222 131.4082 52.513672 L 131.4082 56.25 C 130.66343 56.643668 129.54119 56.839844 128.04102 56.839844 C 124.48741 56.839844 122.70898 54.992712 122.70898 51.300781 L 122.70898 43.816406 L 120.06055 43.816406 L 120.06055 40.097656 L 122.70898 40.097656 L 122.70898 36.570312 L 127.73633 35.134766 z M 65.894531 39.699219 C 67.820291 39.699219 69.214367 39.954144 70.076172 40.464844 L 70.076172 44.742188 C 69.022855 43.954859 67.846854 43.560547 66.548828 43.560547 C 65.101849 43.560547 63.952727 43.986728 63.101562 44.837891 C 62.261057 45.678417 61.839844 46.844447 61.839844 48.333984 C 61.839844 49.780964 62.24413 50.918163 63.052734 51.748047 C 63.861342 52.567297 64.973612 52.976562 66.388672 52.976562 C 67.64414 52.976563 68.873902 52.584204 70.076172 51.796875 L 70.076172 55.849609 C 68.937738 56.509265 67.293719 56.839844 65.144531 56.839844 C 62.633595 56.839844 60.602204 56.078102 59.048828 54.556641 C 57.495455 53.035187 56.71875 51.072509 56.71875 48.667969 C 56.71875 45.891049 57.547262 43.705313 59.207031 42.109375 C 60.877441 40.502801 63.106968 39.699219 65.894531 39.699219 z M 93.457031 39.699219 C 95.84029 39.699219 97.680492 40.407205 98.978516 41.822266 C 100.28718 43.237333 100.94141 45.15817 100.94141 47.583984 L 100.94141 49.705078 L 90.28125 49.705078 C 90.45148 52.077704 91.94614 53.265625 94.765625 53.265625 C 96.56371 53.265625 98.142044 52.839451 99.503906 51.988281 L 99.503906 55.626953 C 97.993088 56.43556 96.03041 56.839844 93.615234 56.839844 C 90.976623 56.839844 88.928318 56.109964 87.470703 54.652344 C 86.01308 53.184085 85.285156 51.142721 85.285156 48.525391 C 85.285156 45.812302 86.071832 43.66342 87.646484 42.078125 C 89.221139 40.49283 91.158882 39.699219 93.457031 39.699219 z M 110.54883 39.699219 C 115.20896 39.699219 117.53906 42.024336 117.53906 46.673828 L 117.53906 56.441406 L 112.76758 56.441406 L 112.76758 54.09375 L 112.70312 54.09375 C 111.60741 55.923754 109.98513 56.839844 107.83594 56.839844 C 106.25065 56.839844 105.00094 56.391772 104.08594 55.498047 C 103.18158 54.593687 102.72852 53.392756 102.72852 51.892578 C 102.72852 48.721988 104.60557 46.891765 108.36133 46.402344 L 112.79883 45.8125 C 112.79883 44.025056 111.83093 43.130859 109.89453 43.130859 C 107.9475 43.130859 106.09537 43.709428 104.33984 44.869141 L 104.33984 41.072266 C 105.04205 40.710525 105.99998 40.389912 107.21289 40.113281 C 108.43644 39.83665 109.54871 39.699219 110.54883 39.699219 z M 168.13086 39.699219 C 170.51412 39.699219 172.35432 40.407205 173.65234 41.822266 C 174.96101 43.237333 175.61523 45.15817 175.61523 47.583984 L 175.61523 49.705078 L 164.95312 49.705078 C 165.12335 52.077704 166.61996 53.265625 169.43945 53.265625 C 171.23753 53.265625 172.81587 52.839451 174.17773 51.988281 L 174.17773 55.626953 C 172.66692 56.43556 170.70424 56.839844 168.28906 56.839844 C 165.65046 56.839844 163.60215 56.109964 162.14453 54.652344 C 160.68692 53.184085 159.95898 51.142721 159.95898 48.525391 C 159.95898 45.812302 160.74566 43.66342 162.32031 42.078125 C 163.89497 40.49283 165.83272 39.699219 168.13086 39.699219 z M 82.794922 39.810547 C 83.3269 39.810547 83.743108 39.874281 84.041016 40.001953 L 84.041016 44.646484 C 83.434563 44.316655 82.726576 44.152344 81.917969 44.152344 C 80.822095 44.152344 79.96475 44.556627 79.347656 45.365234 C 78.730563 46.163201 78.421875 47.253573 78.421875 48.636719 L 78.421875 56.441406 L 73.378906 56.441406 L 73.378906 40.097656 L 78.421875 40.097656 L 78.421875 43.130859 L 78.486328 43.130859 C 79.2843 40.917833 80.720213 39.810547 82.794922 39.810547 z M 134.24805 40.097656 L 139.29102 40.097656 L 139.29102 56.441406 L 134.24805 56.441406 L 134.24805 40.097656 z M 141.47852 40.097656 L 146.87305 40.097656 L 149.71289 50.167969 C 150.03208 51.306398 150.21829 52.274299 150.27148 53.072266 L 150.33594 53.072266 C 150.41042 52.316862 150.6066 51.38083 150.92578 50.263672 L 153.83008 40.097656 L 159.09766 40.097656 L 153.01562 56.441406 L 147.27148 56.441406 L 141.47852 40.097656 z M 93.423828 43.097656 C 92.615226 43.097656 91.914177 43.433224 91.318359 44.103516 C 90.733185 44.77381 90.375727 45.609262 90.248047 46.609375 L 96.265625 46.609375 C 96.265625 44.268676 95.317674 43.097656 93.423828 43.097656 z M 168.09766 43.097656 C 167.28905 43.097656 166.588 43.433224 165.99219 44.103516 C 165.40701 44.77381 165.04943 45.609262 164.92188 46.609375 L 170.93945 46.609375 C 170.93945 44.268676 169.99149 43.097656 168.09766 43.097656 z M 112.79883 48.701172 L 109.83008 49.083984 C 108.19159 49.296772 107.37305 50.034675 107.37305 51.300781 C 107.37305 51.87532 107.56923 52.350272 107.96289 52.722656 C 108.36719 53.084405 108.91086 53.265625 109.5918 53.265625 C 110.53871 53.265625 111.30848 52.940031 111.9043 52.291016 C 112.50011 51.63136 112.79883 50.800895 112.79883 49.800781 L 112.79883 48.701172 z M 103.6543 73.101562 L 108.69727 73.101562 L 108.69727 83.380859 L 108.76172 83.380859 C 109.99591 81.497654 111.67179 80.554687 113.78906 80.554688 C 117.49163 80.554688 119.3418 82.789207 119.3418 87.257812 L 119.3418 97.296875 L 114.31445 97.296875 L 114.31445 88.007812 C 114.31445 85.613923 113.44216 84.417969 111.69727 84.417969 C 110.80355 84.417969 110.08061 84.751581 109.52734 85.421875 C 108.97409 86.092167 108.69727 86.944538 108.69727 87.976562 L 108.69727 97.296875 L 103.6543 97.296875 L 103.6543 73.101562 z M 163.08594 73.101562 L 168.13086 73.101562 L 168.13086 97.296875 L 163.08594 97.296875 L 163.08594 73.101562 z M 215.14648 73.181641 C 216.00829 73.181641 216.70435 73.421605 217.23633 73.900391 C 217.77895 74.379169 218.05078 74.996541 218.05078 75.751953 C 218.05078 76.517998 217.77895 77.145345 217.23633 77.634766 C 216.70435 78.124179 216.00829 78.369141 215.14648 78.369141 C 214.29532 78.369141 213.59731 78.119197 213.05469 77.619141 C 212.51207 77.108443 212.24219 76.486078 212.24219 75.751953 C 212.24219 74.996541 212.51207 74.379169 213.05469 73.900391 C 213.59731 73.421605 214.29532 73.181641 215.14648 73.181641 z M 63.900391 75.990234 L 63.900391 80.953125 L 67.570312 80.953125 L 67.570312 84.671875 L 63.900391 84.671875 L 63.900391 91.279297 C 63.900391 92.981621 64.574557 93.833984 65.925781 93.833984 C 66.457757 93.833984 67.006426 93.679637 67.570312 93.371094 L 67.570312 97.105469 C 66.825552 97.499132 65.7033 97.695313 64.203125 97.695312 C 60.649512 97.695312 58.873047 95.850129 58.873047 92.158203 L 58.873047 84.671875 L 56.222656 84.671875 L 56.222656 80.953125 L 58.873047 80.953125 L 58.873047 77.427734 L 63.900391 75.990234 z M 242.46875 75.990234 L 242.46875 80.953125 L 246.13867 80.953125 L 246.13867 84.671875 L 242.46875 84.671875 L 242.46875 91.279297 C 242.46875 92.981621 243.14487 93.833984 244.49609 93.833984 C 245.02807 93.833984 245.57478 93.679637 246.13867 93.371094 L 246.13867 97.105469 C 245.39391 97.499132 244.27166 97.695313 242.77148 97.695312 C 239.21787 97.695312 237.44141 95.850129 237.44141 92.158203 L 237.44141 84.671875 L 234.79297 84.671875 L 234.79297 80.953125 L 237.44141 80.953125 L 237.44141 77.427734 L 242.46875 75.990234 z M 77.480469 80.554688 C 79.863728 80.554688 81.703925 81.262674 83.001953 82.677734 C 84.31062 84.092795 84.966797 86.013631 84.966797 88.439453 L 84.966797 90.5625 L 74.304688 90.5625 C 74.474907 92.935119 75.969583 94.121094 78.789062 94.121094 C 80.58715 94.121094 82.167435 93.694912 83.529297 92.84375 L 83.529297 96.482422 C 82.018476 97.291032 80.055806 97.695312 77.640625 97.695312 C 75.002018 97.695312 72.953714 96.967383 71.496094 95.509766 C 70.038476 94.041502 69.310547 91.998187 69.310547 89.380859 C 69.310547 86.667771 70.097221 84.518884 71.671875 82.933594 C 73.246527 81.348299 75.182324 80.554688 77.480469 80.554688 z M 96.169922 80.554688 C 98.095682 80.554688 99.489784 80.809622 100.35156 81.320312 L 100.35156 85.597656 C 99.29827 84.810333 98.122242 84.417969 96.824219 84.417969 C 95.377239 84.417969 94.228115 84.842195 93.376953 85.693359 C 92.536427 86.533886 92.115234 87.699919 92.115234 89.189453 C 92.115234 90.636433 92.519518 91.77363 93.328125 92.603516 C 94.136732 93.422758 95.249011 93.833984 96.664062 93.833984 C 97.919528 93.833984 99.149319 93.439667 100.35156 92.652344 L 100.35156 96.705078 C 99.213153 97.364729 97.569107 97.695314 95.419922 97.695312 C 92.908988 97.695312 90.875641 96.935519 89.322266 95.414062 C 87.768892 93.892615 86.992188 91.927966 86.992188 89.523438 C 86.992188 86.74651 87.822652 84.560774 89.482422 82.964844 C 91.152829 81.35827 93.382359 80.554687 96.169922 80.554688 z M 133.68945 80.554688 C 137.3069 80.554688 139.11523 82.79918 139.11523 87.289062 L 139.11523 97.296875 L 134.08789 97.296875 L 134.08789 88.214844 C 134.08789 85.682631 133.18372 84.417969 131.375 84.417969 C 130.50255 84.417969 129.7846 84.751581 129.2207 85.421875 C 128.65681 86.092167 128.375 86.944537 128.375 87.976562 L 128.375 97.296875 L 123.33203 97.296875 L 123.33203 80.953125 L 128.375 80.953125 L 128.375 83.539062 L 128.43945 83.539062 C 129.64172 81.549471 131.39131 80.554688 133.68945 80.554688 z M 151.11719 80.554688 C 153.83027 80.554688 155.95921 81.321419 157.50195 82.853516 C 159.04469 84.374972 159.81445 86.39141 159.81445 88.902344 C 159.81445 91.615432 159.01775 93.759332 157.42188 95.333984 C 155.83658 96.908639 153.66082 97.695313 150.89453 97.695312 C 148.17081 97.695312 146.02691 96.935519 144.46289 95.414062 C 142.90951 93.881971 142.13281 91.806784 142.13281 89.189453 C 142.13281 86.487008 142.94138 84.374972 144.55859 82.853516 C 146.17581 81.321419 148.36154 80.554688 151.11719 80.554688 z M 180.38672 80.554688 C 183.09981 80.554688 185.2268 81.321419 186.76953 82.853516 C 188.31227 84.374972 189.08398 86.39141 189.08398 88.902344 C 189.08398 91.615432 188.28734 93.759332 186.69141 95.333984 C 185.10612 96.908639 182.93035 97.695313 180.16406 97.695312 C 177.44034 97.695312 175.29644 96.935519 173.73242 95.414062 C 172.17905 93.881969 171.40234 91.806784 171.40234 89.189453 C 171.40234 86.487008 172.21095 84.374972 173.82812 82.853516 C 175.44533 81.321419 177.63108 80.554688 180.38672 80.554688 z M 198.80469 80.554688 C 200.79429 80.554688 202.282 81.321419 203.27148 82.853516 L 203.33594 82.853516 L 203.33594 80.953125 L 208.37891 80.953125 L 208.37891 95.429688 C 208.37891 98.461952 207.50162 100.80702 205.74609 102.4668 C 203.99057 104.13721 201.44737 104.97266 198.11719 104.97266 C 195.9148 104.97266 194.1702 104.65899 192.88281 104.03125 L 192.88281 99.785156 C 194.56386 100.76399 196.26164 101.25391 197.97461 101.25391 C 199.67694 101.25391 200.99536 100.8028 201.93164 99.898438 C 202.86792 99.00472 203.33594 97.784925 203.33594 96.242188 L 203.33594 94.951172 L 203.27148 94.951172 C 202.1224 96.781179 200.42658 97.695313 198.18164 97.695312 C 196.09629 97.695312 194.4423 96.960443 193.21875 95.492188 C 191.9952 94.023929 191.38281 92.056267 191.38281 89.587891 C 191.38281 86.821604 192.06392 84.623946 193.42578 82.996094 C 194.78764 81.368244 196.58102 80.554687 198.80469 80.554688 z M 227.96094 80.554688 C 228.68443 80.554688 229.4193 80.613429 230.16406 80.730469 C 230.90883 80.836875 231.6437 80.996205 232.36719 81.208984 L 232.36719 85.103516 C 231.72882 84.731131 231.04077 84.454312 230.30664 84.273438 C 229.58315 84.081916 228.87018 83.986328 228.16797 83.986328 C 227.83814 83.986328 227.52447 84.018157 227.22656 84.082031 C 226.9393 84.135247 226.68437 84.220876 226.46094 84.337891 C 226.23752 84.444297 226.06323 84.586718 225.93555 84.767578 C 225.80787 84.937808 225.74219 85.135944 225.74219 85.359375 C 225.74219 85.657285 225.83973 85.91221 226.03125 86.125 C 226.22277 86.337787 226.47271 86.523997 226.78125 86.683594 C 227.08979 86.832558 227.43035 86.969991 227.80273 87.097656 C 228.18576 87.214696 228.56316 87.337171 228.93555 87.464844 C 229.60584 87.698922 230.21129 87.955801 230.75391 88.232422 C 231.29652 88.509045 231.75955 88.832689 232.14258 89.205078 C 232.53624 89.577462 232.83496 90.013615 233.03711 90.513672 C 233.2499 91.013729 233.35547 91.609211 233.35547 92.300781 C 233.35547 93.268983 233.14238 94.099445 232.7168 94.791016 C 232.30185 95.47195 231.74323 96.030574 231.04102 96.466797 C 230.34945 96.892377 229.54586 97.201064 228.63086 97.392578 C 227.7265 97.594732 226.78548 97.695313 225.80664 97.695312 C 224.00856 97.695312 222.3446 97.418489 220.8125 96.865234 L 220.8125 92.779297 C 221.64238 93.279361 222.46591 93.651775 223.28516 93.896484 C 224.11504 94.141196 224.89673 94.263672 225.63086 94.263672 C 226.52458 94.263672 227.22758 94.141196 227.73828 93.896484 C 228.25961 93.651773 228.51953 93.279359 228.51953 92.779297 C 228.51953 92.460111 228.40205 92.195212 228.16797 91.982422 C 227.93392 91.769634 227.63216 91.583425 227.25977 91.423828 C 226.89802 91.264231 226.49872 91.119856 226.0625 90.992188 C 225.62628 90.864515 225.20508 90.722094 224.80078 90.5625 C 224.15177 90.317788 223.57818 90.055926 223.07812 89.779297 C 222.58871 89.49203 222.17445 89.1634 221.83398 88.791016 C 221.50416 88.418631 221.24728 87.987468 221.06641 87.498047 C 220.89618 87.008626 220.8125 86.428104 220.8125 85.757812 C 220.8125 84.842818 221.00868 84.05614 221.40234 83.396484 C 221.80665 82.736833 222.33839 82.19815 222.99805 81.783203 C 223.66834 81.357623 224.43009 81.048936 225.28125 80.857422 C 226.14306 80.655268 227.0353 80.554687 227.96094 80.554688 z M 212.5918 80.953125 L 217.63672 80.953125 L 217.63672 97.296875 L 212.5918 97.296875 L 212.5918 80.953125 z M 77.449219 83.955078 C 76.640612 83.955078 75.937607 84.28869 75.341797 84.958984 C 74.756615 85.629276 74.4011 86.464723 74.273438 87.464844 L 80.289062 87.464844 C 80.289062 85.124137 79.343057 83.955078 77.449219 83.955078 z M 151.02148 84.417969 C 149.82986 84.417969 148.9038 84.827239 148.24414 85.646484 C 147.58449 86.465732 147.25586 87.624827 147.25586 89.125 C 147.25586 92.263668 148.52052 93.833984 151.05273 93.833984 C 153.46792 93.833984 154.67578 92.221828 154.67578 88.998047 C 154.67578 85.944493 153.45794 84.417969 151.02148 84.417969 z M 180.29102 84.417969 C 179.09938 84.417969 178.17332 84.827239 177.51367 85.646484 C 176.85402 86.465732 176.52539 87.624827 176.52539 89.125 C 176.52539 92.263668 177.79005 93.833984 180.32227 93.833984 C 182.73745 93.833984 183.94531 92.221828 183.94531 88.998047 C 183.94531 85.944493 182.72748 84.417969 180.29102 84.417969 z M 200.0957 84.417969 C 198.97855 84.417969 198.10126 84.854125 197.46289 85.726562 C 196.82452 86.599011 196.50586 87.826822 196.50586 89.412109 C 196.50586 90.773971 196.80956 91.854372 197.41602 92.652344 C 198.02247 93.439667 198.85099 93.833984 199.9043 93.833984 C 200.94698 93.833984 201.7874 93.434683 202.42578 92.636719 C 203.07479 91.828112 203.40039 90.764615 203.40039 89.445312 L 203.40039 88.152344 C 203.40039 87.120303 203.0917 86.24107 202.47461 85.517578 C 201.86816 84.783453 201.07454 84.417969 200.0957 84.417969 z "
       transform="scale(0.26458333)" />
  </g>
</svg>
