<?xml version="1.0" encoding="UTF-8" standalone="no"?>
<!-- Created with Inkscape (http://www.inkscape.org/) -->

<svg
   width="80mm"
   height="32mm"
   viewBox="0 0 80 32"
   version="1.1"
   id="svg5"
   inkscape:version="1.1 (c68e22c387, 2021-05-23)"
   sodipodi:docname="ThBr.svg"
   xmlns:inkscape="http://www.inkscape.org/namespaces/inkscape"
   xmlns:sodipodi="http://sodipodi.sourceforge.net/DTD/sodipodi-0.dtd"
   xmlns="http://www.w3.org/2000/svg"
   xmlns:svg="http://www.w3.org/2000/svg">
  <sodipodi:namedview
     id="namedview7"
     pagecolor="#ffffff"
     bordercolor="#666666"
     borderopacity="1.0"
     inkscape:pageshadow="2"
     inkscape:pageopacity="0.0"
     inkscape:pagecheckerboard="0"
     inkscape:document-units="mm"
     showgrid="false"
     inkscape:zoom="1.9300999"
     inkscape:cx="201.54397"
     inkscape:cy="115.53806"
     inkscape:window-width="1920"
     inkscape:window-height="986"
     inkscape:window-x="-11"
     inkscape:window-y="-11"
     inkscape:window-maximized="1"
     inkscape:current-layer="layer1" />
  <defs
     id="defs2">
    <rect
       x="93.787544"
       y="126.02701"
       width="630.13507"
       height="464.54144"
       id="rect2036" />
  </defs>
  <g
     inkscape:label="Layer 1"
     inkscape:groupmode="layer"
     id="layer1">
    <path
       id="rect849"
       style="opacity:1;fill:#000000;stroke-width:1.28895"
       d="m 0,0 v 34.3475 h 81.5875 v -34.3475 z m 31.290191,3.1919077 c 1.663726,0 3.00761,0.5445216 4.031857,1.6338028 c 1.029668,1.0892811 1.544518,2.5254923 1.544518,4.3084453 c 0,1.8317262 -0.533689,3.3084422 -1.601292,4.4302402 c -1.062185,1.121794 -2.449399,1.682811 -4.1619,1.682811 c -1.669144,0 -3.02952,-0.542177 -4.080864,-1.626038 c -1.051349,-1.089279 -1.577029,-2.506172 -1.57703,-4.2511872 c 1e-6,-1.842566 0.533697,-3.3329453 1.60129,-4.4710001 c 1.067603,-1.1380549 2.482149,-1.707074 4.243421,-1.707074 z m 39.140883,0 c 0.606965,0 1.14348,0.03816 1.609541,0.1140313 c 0.471479,0.07045 0.904833,0.1811334 1.300443,0.3328746 v 2.4305666 c -0.195094,-0.1354831 -0.408944,-0.2546544 -0.641973,-0.3576218 c -0.227611,-0.1029659 -0.463629,-0.1868078 -0.707478,-0.2518395 c -0.243869,-0.070452 -0.48739,-0.1217904 -0.731256,-0.1543064 c -0.238453,-0.032515 -0.46596,-0.049009 -0.682733,-0.049009 c -0.298062,0 -0.569394,0.029671 -0.813263,0.089284 c -0.243868,0.054192 -0.449711,0.132859 -0.61771,0.2358267 c -0.167997,0.1029659 -0.298002,0.2277984 -0.390132,0.3741198 c -0.09213,0.1409029 -0.138293,0.3005806 -0.138293,0.4794172 c 0,0.1950935 0.05182,0.3712665 0.154792,0.5284265 c 0.102965,0.15174 0.248979,0.29824 0.438655,0.439142 c 0.189676,0.135482 0.420018,0.270662 0.690982,0.406145 c 0.270966,0.130063 0.577142,0.265729 0.918559,0.406632 c 0.466059,0.195095 0.883403,0.403768 1.251918,0.625959 c 0.373931,0.216773 0.693774,0.463121 0.959319,0.739505 c 0.265546,0.276385 0.46856,0.5933963 0.60946,0.9510713 c 0.140902,0.352255 0.211566,0.764426 0.211566,1.235906 c 0,0.650317 -0.124832,1.197668 -0.37412,1.642051 c -0.243869,0.438965 -0.576889,0.796481 -0.999594,1.072866 c -0.422705,0.270964 -0.915889,0.465975 -1.479496,0.585199 c -0.558189,0.119224 -1.148876,0.179053 -1.772095,0.179053 c -0.639479,0 -1.249487,-0.05417 -1.829353,-0.162555 c -0.574446,-0.108386 -1.072805,-0.270893 -1.495508,-0.487666 v -2.60137 c 0.471477,0.395609 0.983498,0.693782 1.536268,0.894296 c 0.552768,0.195095 1.110954,0.2926 1.674561,0.2926 c 0.33058,0 0.617919,-0.03016 0.861785,-0.08977 c 0.24929,-0.05962 0.455132,-0.140624 0.617711,-0.24359 c 0.167997,-0.108386 0.292832,-0.233219 0.37412,-0.37412 c 0.08129,-0.146321 0.121796,-0.303168 0.121796,-0.471167 c 0,-0.227611 -0.06501,-0.431111 -0.195067,-0.609948 c -0.130065,-0.178837 -0.309065,-0.344175 -0.536676,-0.495915 c -0.222187,-0.15174 -0.487862,-0.297754 -0.796763,-0.438656 c -0.308901,-0.140901 -0.641919,-0.284571 -0.999594,-0.430893 c -0.910441,-0.3793533 -1.590627,-0.8428633 -2.040433,-1.3902123 c -0.444382,-0.547351 -0.666718,-1.208216 -0.666718,-1.983176 c 0,-0.6069635 0.122003,-1.1274725 0.365872,-1.5610168 c 0.243866,-0.4389638 0.574543,-0.799313 0.991827,-1.0811143 c 0.422708,-0.2818047 0.91023,-0.487647 1.463,-0.6177106 c 0.552765,-0.1354831 1.1383,-0.2033149 1.75608,-0.2033153 z m -67.8442618,0.1950664 h 9.2671058 v 2.137967 h -3.3248614 v 9.5189509 h -2.6338807 v -9.5189509 h -3.3083637 z m 10.8358858,0 h 2.625632 v 4.6495677 h 4.82862 v -4.6495677 h 2.63388 v 11.6569179 h -2.63388 v -4.747101 h -4.82862 v 4.747101 h -2.625632 z m 25.378516,0 h 3.845041 l 2.382041,6.9098169 c 0.189676,0.552769 0.327686,1.108124 0.414395,1.666314 h 0.04852 c 0.146321,-0.644898 0.300825,-1.205913 0.463403,-1.682813 l 2.382041,-6.8933179 h 3.747507 v 11.6569179 h -2.59312 v -6.9748392 c 0,-0.753283 0.0325,-1.5851453 0.09753,-2.4955876 h -0.06502 c -0.135483,0.7153469 -0.257483,1.2301986 -0.365872,1.5445186 l -2.731413,7.9259082 h -2.146215 l -2.779937,-7.8443882 c -0.07587,-0.211353 -0.197872,-0.7535327 -0.365871,-1.6260386 h -0.07327 c 0.07045,1.1488916 0.105782,2.1569266 0.105782,3.0240146 v 6.4464122 h -2.365545 z m 18.924347,0 h 3.113297 l 4.145888,11.6569179 h -2.861459 l -0.829274,-2.593122 h -4.145888 l -0.821026,2.593122 h -2.844959 z m -26.508641,2.0646957 c -0.92128,0 -1.652807,0.3466836 -2.194738,1.0403544 c -0.54193,0.6882536 -0.812777,1.6016096 -0.812777,2.7396646 c 0,1.1543142 0.270847,2.0676702 0.812777,2.7396652 c 0.541931,0.671995 1.251791,1.007842 2.129716,1.007842 c 0.905024,0 1.623371,-0.325014 2.154465,-0.975331 c 0.531091,-0.655736 0.796279,-1.563434 0.796279,-2.7231672 c 0,-1.208503 -0.257183,-2.149191 -0.772019,-2.8211846 c -0.514835,-0.6719949 -1.219518,-1.0078434 -2.113703,-1.0078434 z m 27.963874,0.016499 c -0.02709,0.3414153 -0.09493,0.6800941 -0.203316,1.0160924 l -1.268416,3.9503388 h 2.983739 l -1.251917,-3.9178278 c -0.09212,-0.29264 -0.157133,-0.6421563 -0.195068,-1.0486034 z m -56.0097533,12.4624162 h 4.2434206 c 1.3006332,0 2.300662,0.238346 2.9997507,0.715244 c 0.699091,0.4769 1.048603,1.148598 1.048603,2.015686 c 0,0.62864 -0.214333,1.17882 -0.642457,1.6503 c -0.422706,0.47148 -0.9643978,0.799325 -1.6255527,0.983583 v 0.03251 c 0.8291527,0.102967 1.4900167,0.409143 1.9831747,0.918557 c 0.498575,0.509418 0.747754,1.129774 0.747754,1.861382 c 0,1.067603 -0.382014,1.915959 -1.146136,2.544598 c -0.764119,0.623219 -1.8069994,0.935057 -3.1293105,0.935057 h -4.4792468 z m 10.6733313,0 h 4.1619 c 2.828876,0 4.24342,1.056544 4.24342,3.170073 c 0,0.406448 -0.06217,0.783289 -0.186817,1.130122 c -0.124643,0.341419 -0.300815,0.64994 -0.528426,0.926325 c -0.227611,0.276385 -0.504116,0.515213 -0.829274,0.715728 c -0.319739,0.200513 -0.677255,0.357363 -1.072865,0.471168 v 0.03251 c 0.173419,0.05419 0.341099,0.143694 0.503679,0.268338 c 0.162579,0.119225 0.319913,0.260065 0.471652,0.422643 c 0.151741,0.162579 0.295411,0.338749 0.430893,0.528425 c 0.140903,0.184258 0.268079,0.365604 0.381884,0.544441 l 2.202988,3.447144 h -3.015765 l -1.812855,-2.999753 c -0.135483,-0.227611 -0.265489,-0.431108 -0.390132,-0.609948 c -0.124644,-0.178836 -0.251821,-0.330511 -0.381884,-0.455154 c -0.124645,-0.130062 -0.25748,-0.227566 -0.398382,-0.292599 c -0.135482,-0.07045 -0.284327,-0.105782 -0.446905,-0.105782 h -0.70748 v 4.463236 h -2.625631 z m 10.868397,0 h 2.62563 v 11.656918 h -2.62563 z m 4.194412,0 h 9.267106 v 2.137482 h -3.324861 v 9.519436 h -2.633396 v -9.519436 h -3.308849 z m 10.835885,0 h 2.828947 l 4.625305,7.096149 c 0.211352,0.319738 0.406847,0.636748 0.585683,0.951068 h 0.03251 c -0.04336,-0.270964 -0.06502,-0.804651 -0.06502,-1.60129 v -6.445927 h 2.479088 v 11.656918 h -2.649892 l -4.804357,-7.324212 c -0.281804,-0.428123 -0.476812,-0.750794 -0.5852,-0.967567 h -0.03251 c 0.04336,0.411868 0.06502,1.040716 0.06502,1.886128 v 6.405651 h -2.479574 z m 13.152906,0 h 6.722508 v 2.137482 h -4.096877 v 2.593121 h 3.812527 v 2.130203 h -3.812527 v 2.665908 h 4.365215 v 2.130204 h -6.990846 z m 8.860475,0 h 2.625631 v 9.526714 h 4.316692 v 2.130204 h -6.942323 z m 8.511102,0 h 2.625632 v 9.526714 h 4.316207 v 2.130204 h -6.941839 z m -64.4708767,1.934652 v 2.763443 h 1.154385 c 0.541931,0 0.9672798,-0.130009 1.2761802,-0.390136 c 0.3143188,-0.265545 0.4716531,-0.628721 0.4716528,-1.089362 c 0,-0.856252 -0.6396815,-1.283945 -1.9186374,-1.283945 z m 10.6733307,0.03251 v 3.243345 h 1.137887 c 0.563606,0 1.016285,-0.162509 1.357701,-0.487669 c 0.346835,-0.330576 0.520176,-0.739918 0.520176,-1.227656 c 0,-1.01883 -0.609525,-1.52802 -1.828868,-1.52802 z m -10.6733307,4.68208 v 3.072539 h 1.4227225 c 0.6069628,0 1.0808225,-0.14084 1.4222374,-0.422644 c 0.346836,-0.281803 0.5206621,-0.666648 0.5206621,-1.154387 c 0,-0.466059 -0.1709969,-0.83158 -0.512413,-1.097126 c -0.3359966,-0.265545 -0.8075125,-0.398382 -1.4144734,-0.398382 z"
       sodipodi:nodetypes="cccccscscscscssccccccscscscccccscscccsccccscccsscsccscccsccccccccccccccccccccccccccccccccsccccccccsccccccccccccscssscsssccccccccsssccccscscccsscsccccscccccsccscccccccccccccccccccccccscccccccsccccccccccccccccccccccccccccccccscsscccscsscccscscsc" />
  </g>
</svg>
